<mxfile host="app.diagrams.net" modified="2023-03-23T23:48:01.691Z" agent="5.0 (Macintosh; Intel Mac OS X 10_15_7) AppleWebKit/605.1.15 (KHTML, like Gecko) Version/16.3 Safari/605.1.15" etag="m1td0u4d25yzVyynCFXi" version="21.0.6" type="github">
  <diagram name="Page-1" id="16e2658f-23c8-b752-8be9-c03fbebb8bbe">
    <mxGraphModel dx="478" dy="257" grid="1" gridSize="10" guides="1" tooltips="1" connect="1" arrows="1" fold="1" page="1" pageScale="1" pageWidth="1169" pageHeight="827" background="none" math="0" shadow="0">
      <root>
        <mxCell id="0" />
        <mxCell id="1" parent="0" />
        <mxCell id="QuTBvmIOIHdLfjQirwNA-1" value="" style="whiteSpace=wrap;html=1;aspect=fixed;" vertex="1" parent="1">
          <mxGeometry x="40" y="40" width="70" height="70" as="geometry" />
        </mxCell>
        <mxCell id="QuTBvmIOIHdLfjQirwNA-2" value="" style="endArrow=none;html=1;rounded=0;" edge="1" parent="1">
          <mxGeometry width="50" height="50" relative="1" as="geometry">
            <mxPoint x="60" y="150" as="sourcePoint" />
            <mxPoint x="60" y="20" as="targetPoint" />
          </mxGeometry>
        </mxCell>
        <mxCell id="QuTBvmIOIHdLfjQirwNA-3" value="" style="endArrow=none;html=1;rounded=0;" edge="1" parent="1">
          <mxGeometry width="50" height="50" relative="1" as="geometry">
            <mxPoint x="70" y="150" as="sourcePoint" />
            <mxPoint x="70" y="20" as="targetPoint" />
          </mxGeometry>
        </mxCell>
        <mxCell id="QuTBvmIOIHdLfjQirwNA-4" value="" style="endArrow=none;html=1;rounded=0;" edge="1" parent="1">
          <mxGeometry width="50" height="50" relative="1" as="geometry">
            <mxPoint x="80" y="150" as="sourcePoint" />
            <mxPoint x="80" y="20" as="targetPoint" />
          </mxGeometry>
        </mxCell>
        <mxCell id="QuTBvmIOIHdLfjQirwNA-5" value="" style="endArrow=none;html=1;rounded=0;" edge="1" parent="1">
          <mxGeometry width="50" height="50" relative="1" as="geometry">
            <mxPoint x="90" y="150" as="sourcePoint" />
            <mxPoint x="90" y="20" as="targetPoint" />
          </mxGeometry>
        </mxCell>
        <mxCell id="QuTBvmIOIHdLfjQirwNA-7" value="HAK" style="text;html=1;strokeColor=none;fillColor=none;align=center;verticalAlign=middle;whiteSpace=wrap;rounded=0;" vertex="1" parent="1">
          <mxGeometry x="120" y="40" width="60" height="30" as="geometry" />
        </mxCell>
        <mxCell id="QuTBvmIOIHdLfjQirwNA-46" value="" style="endArrow=none;html=1;rounded=0;" edge="1" parent="1">
          <mxGeometry width="50" height="50" relative="1" as="geometry">
            <mxPoint x="97" y="180" as="sourcePoint" />
            <mxPoint x="70" y="150" as="targetPoint" />
            <Array as="points">
              <mxPoint x="70" y="180" />
            </Array>
          </mxGeometry>
        </mxCell>
        <mxCell id="QuTBvmIOIHdLfjQirwNA-47" value="" style="endArrow=none;html=1;rounded=0;" edge="1" parent="1">
          <mxGeometry width="50" height="50" relative="1" as="geometry">
            <mxPoint x="127" y="180" as="sourcePoint" />
            <mxPoint x="80" y="150" as="targetPoint" />
            <Array as="points">
              <mxPoint x="127" y="170" />
              <mxPoint x="80" y="170" />
            </Array>
          </mxGeometry>
        </mxCell>
        <mxCell id="QuTBvmIOIHdLfjQirwNA-48" value="" style="endArrow=none;html=1;rounded=0;" edge="1" parent="1">
          <mxGeometry width="50" height="50" relative="1" as="geometry">
            <mxPoint x="157" y="190" as="sourcePoint" />
            <mxPoint x="90" y="150" as="targetPoint" />
            <Array as="points">
              <mxPoint x="157" y="160" />
              <mxPoint x="90" y="160" />
            </Array>
          </mxGeometry>
        </mxCell>
        <mxCell id="QuTBvmIOIHdLfjQirwNA-32" value="" style="endArrow=none;html=1;rounded=0;" edge="1" parent="1">
          <mxGeometry width="50" height="50" relative="1" as="geometry">
            <mxPoint x="127" y="180" as="sourcePoint" />
            <mxPoint x="127" y="190" as="targetPoint" />
          </mxGeometry>
        </mxCell>
        <mxCell id="QuTBvmIOIHdLfjQirwNA-22" value="" style="endArrow=none;html=1;rounded=0;" edge="1" parent="1">
          <mxGeometry width="50" height="50" relative="1" as="geometry">
            <mxPoint x="97" y="180" as="sourcePoint" />
            <mxPoint x="97" y="190" as="targetPoint" />
          </mxGeometry>
        </mxCell>
        <mxCell id="QuTBvmIOIHdLfjQirwNA-50" value="" style="group" vertex="1" connectable="0" parent="1">
          <mxGeometry x="74" y="190" width="28" height="70" as="geometry" />
        </mxCell>
        <mxCell id="QuTBvmIOIHdLfjQirwNA-20" value="" style="verticalLabelPosition=bottom;shadow=0;dashed=0;align=center;html=1;verticalAlign=top;strokeWidth=1;shape=ellipse;perimeter=ellipsePerimeter;container=0;" vertex="1" parent="QuTBvmIOIHdLfjQirwNA-50">
          <mxGeometry x="18.060347887823923" width="9.939652112176079" height="10" as="geometry" />
        </mxCell>
        <mxCell id="QuTBvmIOIHdLfjQirwNA-21" value="" style="endArrow=none;html=1;rounded=0;strokeWidth=2;" edge="1" parent="QuTBvmIOIHdLfjQirwNA-50">
          <mxGeometry width="50" height="50" relative="1" as="geometry">
            <mxPoint x="18.060347887823923" as="sourcePoint" />
            <mxPoint x="28" as="targetPoint" />
          </mxGeometry>
        </mxCell>
        <mxCell id="QuTBvmIOIHdLfjQirwNA-18" value="" style="endArrow=none;html=1;rounded=0;" edge="1" parent="QuTBvmIOIHdLfjQirwNA-50">
          <mxGeometry width="50" height="50" relative="1" as="geometry">
            <mxPoint x="25.018104366347178" y="70" as="sourcePoint" />
            <mxPoint x="25.018104366347178" y="57" as="targetPoint" />
          </mxGeometry>
        </mxCell>
        <mxCell id="QuTBvmIOIHdLfjQirwNA-11" value="" style="rounded=0;whiteSpace=wrap;html=1;container=0;rotation=-30;" vertex="1" parent="QuTBvmIOIHdLfjQirwNA-50">
          <mxGeometry x="6.957756478523255" y="20" width="9.939652112176079" height="30" as="geometry" />
        </mxCell>
        <mxCell id="QuTBvmIOIHdLfjQirwNA-16" value="" style="endArrow=none;html=1;rounded=0;" edge="1" parent="QuTBvmIOIHdLfjQirwNA-50">
          <mxGeometry width="50" height="50" relative="1" as="geometry">
            <mxPoint x="24.849130280440196" y="57" as="sourcePoint" />
            <mxPoint y="13" as="targetPoint" />
          </mxGeometry>
        </mxCell>
        <mxCell id="QuTBvmIOIHdLfjQirwNA-51" value="" style="group" vertex="1" connectable="0" parent="1">
          <mxGeometry x="104" y="190" width="28" height="70" as="geometry" />
        </mxCell>
        <mxCell id="QuTBvmIOIHdLfjQirwNA-52" value="" style="verticalLabelPosition=bottom;shadow=0;dashed=0;align=center;html=1;verticalAlign=top;strokeWidth=1;shape=ellipse;perimeter=ellipsePerimeter;container=0;" vertex="1" parent="QuTBvmIOIHdLfjQirwNA-51">
          <mxGeometry x="18.060347887823923" width="9.939652112176079" height="10" as="geometry" />
        </mxCell>
        <mxCell id="QuTBvmIOIHdLfjQirwNA-53" value="" style="endArrow=none;html=1;rounded=0;strokeWidth=2;" edge="1" parent="QuTBvmIOIHdLfjQirwNA-51">
          <mxGeometry width="50" height="50" relative="1" as="geometry">
            <mxPoint x="18.060347887823923" as="sourcePoint" />
            <mxPoint x="28" as="targetPoint" />
          </mxGeometry>
        </mxCell>
        <mxCell id="QuTBvmIOIHdLfjQirwNA-54" value="" style="endArrow=none;html=1;rounded=0;" edge="1" parent="QuTBvmIOIHdLfjQirwNA-51">
          <mxGeometry width="50" height="50" relative="1" as="geometry">
            <mxPoint x="25.018104366347178" y="70" as="sourcePoint" />
            <mxPoint x="25.018104366347178" y="57" as="targetPoint" />
          </mxGeometry>
        </mxCell>
        <mxCell id="QuTBvmIOIHdLfjQirwNA-55" value="" style="rounded=0;whiteSpace=wrap;html=1;container=0;rotation=-30;" vertex="1" parent="QuTBvmIOIHdLfjQirwNA-51">
          <mxGeometry x="6.957756478523255" y="20" width="9.939652112176079" height="30" as="geometry" />
        </mxCell>
        <mxCell id="QuTBvmIOIHdLfjQirwNA-56" value="" style="endArrow=none;html=1;rounded=0;" edge="1" parent="QuTBvmIOIHdLfjQirwNA-51">
          <mxGeometry width="50" height="50" relative="1" as="geometry">
            <mxPoint x="24.849130280440196" y="57" as="sourcePoint" />
            <mxPoint y="13" as="targetPoint" />
          </mxGeometry>
        </mxCell>
        <mxCell id="QuTBvmIOIHdLfjQirwNA-57" value="" style="group" vertex="1" connectable="0" parent="1">
          <mxGeometry x="134" y="190" width="28" height="70" as="geometry" />
        </mxCell>
        <mxCell id="QuTBvmIOIHdLfjQirwNA-58" value="" style="verticalLabelPosition=bottom;shadow=0;dashed=0;align=center;html=1;verticalAlign=top;strokeWidth=1;shape=ellipse;perimeter=ellipsePerimeter;container=0;" vertex="1" parent="QuTBvmIOIHdLfjQirwNA-57">
          <mxGeometry x="18.060347887823923" width="9.939652112176079" height="10" as="geometry" />
        </mxCell>
        <mxCell id="QuTBvmIOIHdLfjQirwNA-59" value="" style="endArrow=none;html=1;rounded=0;strokeWidth=2;" edge="1" parent="QuTBvmIOIHdLfjQirwNA-57">
          <mxGeometry width="50" height="50" relative="1" as="geometry">
            <mxPoint x="18.060347887823923" as="sourcePoint" />
            <mxPoint x="28" as="targetPoint" />
          </mxGeometry>
        </mxCell>
        <mxCell id="QuTBvmIOIHdLfjQirwNA-60" value="" style="endArrow=none;html=1;rounded=0;" edge="1" parent="QuTBvmIOIHdLfjQirwNA-57">
          <mxGeometry width="50" height="50" relative="1" as="geometry">
            <mxPoint x="25.018104366347178" y="70" as="sourcePoint" />
            <mxPoint x="25.018104366347178" y="57" as="targetPoint" />
          </mxGeometry>
        </mxCell>
        <mxCell id="QuTBvmIOIHdLfjQirwNA-61" value="" style="rounded=0;whiteSpace=wrap;html=1;container=0;rotation=-30;" vertex="1" parent="QuTBvmIOIHdLfjQirwNA-57">
          <mxGeometry x="6.957756478523255" y="20" width="9.939652112176079" height="30" as="geometry" />
        </mxCell>
        <mxCell id="QuTBvmIOIHdLfjQirwNA-62" value="" style="endArrow=none;html=1;rounded=0;" edge="1" parent="QuTBvmIOIHdLfjQirwNA-57">
          <mxGeometry width="50" height="50" relative="1" as="geometry">
            <mxPoint x="24.849130280440196" y="57" as="sourcePoint" />
            <mxPoint y="13" as="targetPoint" />
          </mxGeometry>
        </mxCell>
      </root>
    </mxGraphModel>
  </diagram>
</mxfile>
